HIERARCHY
ROOT Hips
{
    OFFSET   0.000000   0.000000   0.000000
    CHANNELS 6 Xposition Yposition Zposition Zrotation Xrotation Yrotation
    JOINT Chest
    {
        OFFSET   0.000000   8.007230   0.000000
        CHANNELS 3 Zrotation Xrotation Yrotation
        JOINT Chest2
        {
            OFFSET   0.000000  22.077100   0.000000
            CHANNELS 3 Zrotation Xrotation Yrotation
            JOINT Neck
            {
                OFFSET   0.000000  23.254800  -0.000021
                CHANNELS 3 Zrotation Xrotation Yrotation
                JOINT Head
                {
                    OFFSET   0.000000  14.370000   1.956610
                    CHANNELS 3 Zrotation Xrotation Yrotation
                    End Site
                    {
                        OFFSET   0.000000  19.566000   0.000000
                    }
                }
            }
            JOINT LeftCollar
            {
                OFFSET   3.911900  19.017000  -0.467063
                CHANNELS 3 Zrotation Xrotation Yrotation
                JOINT LeftShoulder
                {
                    OFFSET  10.383700   0.000000   0.000000
                    CHANNELS 3 Zrotation Xrotation Yrotation
                    JOINT LeftElbow
                    {
                        OFFSET  26.662100   0.001529   0.000325
                        CHANNELS 3 Zrotation Xrotation Yrotation
                        JOINT LeftWrist
                        {
                            OFFSET  28.869000  -0.000011  -0.000096
                            CHANNELS 3 Zrotation Xrotation Yrotation
                            JOINT LeftFinger0
                            {
                                OFFSET   2.044650  -2.323460   3.252850
                                CHANNELS 3 Zrotation Xrotation Yrotation
                                JOINT LeftFinger01
                                {
                                    OFFSET   3.088130   0.000000   0.000000
                                    CHANNELS 3 Zrotation Xrotation Yrotation
                                    JOINT LeftFinger02
                                    {
                                        OFFSET   2.639460   0.000000   0.000000
                                        CHANNELS 3 Zrotation Xrotation Yrotation
                                        End Site
                                        {
                                            OFFSET   2.582190   0.000000   0.000000
                                        }
                                    }
                                }
                            }
                            JOINT LeftFinger1
                            {
                                OFFSET   8.364480   0.000000   3.252850
                                CHANNELS 3 Zrotation Xrotation Yrotation
                                JOINT LeftFinger11
                                {
                                    OFFSET   4.646930   0.000000   0.000000
                                    CHANNELS 3 Zrotation Xrotation Yrotation
                                    JOINT LeftFinger12
                                    {
                                        OFFSET   2.323460   0.000000   0.000000
                                        CHANNELS 3 Zrotation Xrotation Yrotation
                                        End Site
                                        {
                                            OFFSET   2.273050   0.000000   0.000000
                                        }
                                    }
                                }
                            }
                            JOINT LeftFinger2
                            {
                                OFFSET   8.364480   0.000016   1.078090
                                CHANNELS 3 Zrotation Xrotation Yrotation
                                JOINT LeftFinger21
                                {
                                    OFFSET   5.111620   0.000000   0.000000
                                    CHANNELS 3 Zrotation Xrotation Yrotation
                                    JOINT LeftFinger22
                                    {
                                        OFFSET   2.788160   0.000017   0.000000
                                        CHANNELS 3 Zrotation Xrotation Yrotation
                                        End Site
                                        {
                                            OFFSET   2.727660   0.000000   0.000000
                                        }
                                    }
                                }
                            }
                            JOINT LeftFinger3
                            {
                                OFFSET   7.899780   0.000015  -1.078090
                                CHANNELS 3 Zrotation Xrotation Yrotation
                                JOINT LeftFinger31
                                {
                                    OFFSET   4.646920   0.000000   0.000000
                                    CHANNELS 3 Zrotation Xrotation Yrotation
                                    JOINT LeftFinger32
                                    {
                                        OFFSET   2.323470   0.000000   0.000000
                                        CHANNELS 3 Zrotation Xrotation Yrotation
                                        End Site
                                        {
                                            OFFSET   2.273050   0.000000   0.000000
                                        }
                                    }
                                }
                            }
                            JOINT LeftFinger4
                            {
                                OFFSET   7.435090   0.000000  -3.252850
                                CHANNELS 3 Zrotation Xrotation Yrotation
                                JOINT LeftFinger41
                                {
                                    OFFSET   3.717550   0.000000   0.000000
                                    CHANNELS 3 Zrotation Xrotation Yrotation
                                    JOINT LeftFinger42
                                    {
                                        OFFSET   1.858760   0.000000   0.000000
                                        CHANNELS 3 Zrotation Xrotation Yrotation
                                        End Site
                                        {
                                            OFFSET   1.818440   0.000000   0.000000
                                        }
                                    }
                                }
                            }
                        }
                    }
                }
            }
            JOINT RightCollar
            {
                OFFSET  -3.911900  19.017000  -0.467062
                CHANNELS 3 Zrotation Xrotation Yrotation
                JOINT RightShoulder
                {
                    OFFSET -10.383700   0.000015   0.000000
                    CHANNELS 3 Zrotation Xrotation Yrotation
                    JOINT RightElbow
                    {
                        OFFSET -26.662100   0.001341   0.000385
                        CHANNELS 3 Zrotation Xrotation Yrotation
                        JOINT RightWrist
                        {
                            OFFSET -28.869000   0.000025  -0.000080
                            CHANNELS 3 Zrotation Xrotation Yrotation
                            JOINT RightFinger0
                            {
                                OFFSET  -2.044650  -2.323490   3.252850
                                CHANNELS 3 Zrotation Xrotation Yrotation
                                JOINT RightFinger01
                                {
                                    OFFSET  -3.088130   0.000000   0.000000
                                    CHANNELS 3 Zrotation Xrotation Yrotation
                                    JOINT RightFinger02
                                    {
                                        OFFSET  -2.639460   0.000000   0.000000
                                        CHANNELS 3 Zrotation Xrotation Yrotation
                                        End Site
                                        {
                                            OFFSET  -2.582190   0.000000   0.000000
                                        }
                                    }
                                }
                            }
                            JOINT RightFinger1
                            {
                                OFFSET  -8.364480   0.000000   3.252850
                                CHANNELS 3 Zrotation Xrotation Yrotation
                                JOINT RightFinger11
                                {
                                    OFFSET  -4.646930   0.000000   0.000000
                                    CHANNELS 3 Zrotation Xrotation Yrotation
                                    JOINT RightFinger12
                                    {
                                        OFFSET  -2.323470   0.000000   0.000000
                                        CHANNELS 3 Zrotation Xrotation Yrotation
                                        End Site
                                        {
                                            OFFSET  -2.273050   0.000000   0.000000
                                        }
                                    }
                                }
                            }
                            JOINT RightFinger2
                            {
                                OFFSET  -8.364480   0.000000   1.078090
                                CHANNELS 3 Zrotation Xrotation Yrotation
                                JOINT RightFinger21
                                {
                                    OFFSET  -5.111610   0.000000   0.000000
                                    CHANNELS 3 Zrotation Xrotation Yrotation
                                    JOINT RightFinger22
                                    {
                                        OFFSET  -2.788160   0.000000   0.000000
                                        CHANNELS 3 Zrotation Xrotation Yrotation
                                        End Site
                                        {
                                            OFFSET  -2.727660   0.000000   0.000000
                                        }
                                    }
                                }
                            }
                            JOINT RightFinger3
                            {
                                OFFSET  -7.899780   0.000000  -1.078090
                                CHANNELS 3 Zrotation Xrotation Yrotation
                                JOINT RightFinger31
                                {
                                    OFFSET  -4.646920   0.000000   0.000000
                                    CHANNELS 3 Zrotation Xrotation Yrotation
                                    JOINT RightFinger32
                                    {
                                        OFFSET  -2.323470   0.000000   0.000000
                                        CHANNELS 3 Zrotation Xrotation Yrotation
                                        End Site
                                        {
                                            OFFSET  -2.273050   0.000000   0.000000
                                        }
                                    }
                                }
                            }
                            JOINT RightFinger4
                            {
                                OFFSET  -7.435090   0.000000  -3.252850
                                CHANNELS 3 Zrotation Xrotation Yrotation
                                JOINT RightFinger41
                                {
                                    OFFSET  -3.717550   0.000000   0.000000
                                    CHANNELS 3 Zrotation Xrotation Yrotation
                                    JOINT RightFinger42
                                    {
                                        OFFSET  -1.858770   0.000000   0.000000
                                        CHANNELS 3 Zrotation Xrotation Yrotation
                                        End Site
                                        {
                                            OFFSET  -1.818440   0.000000   0.000000
                                        }
                                    }
                                }
                            }
                        }
                    }
                }
            }
        }
    }
    JOINT LeftHip
    {
        OFFSET   9.783010   0.000000   0.000000
        CHANNELS 3 Zrotation Xrotation Yrotation
        JOINT LeftKnee
        {
            OFFSET   0.000070 -41.789100   0.000028
            CHANNELS 3 Zrotation Xrotation Yrotation
            JOINT LeftAnkle
            {
                OFFSET   0.000087 -41.133200  -0.000100
                CHANNELS 3 Zrotation Xrotation Yrotation
                JOINT LeftToe
                {
                    OFFSET   0.000000  -6.358960  14.674500
                    CHANNELS 3 Zrotation Xrotation Yrotation
                    End Site
                    {
                        OFFSET   0.000000   0.000000   3.913200
                    }
                }
            }
        }
    }
    JOINT RightHip
    {
        OFFSET  -9.783020   0.000000   0.000000
        CHANNELS 3 Zrotation Xrotation Yrotation
        JOINT RightKnee
        {
            OFFSET   0.000044 -41.789100  -0.000870
            CHANNELS 3 Zrotation Xrotation Yrotation
            JOINT RightAnkle
            {
                OFFSET  -0.000090 -41.133200  -0.000245
                CHANNELS 3 Zrotation Xrotation Yrotation
                JOINT RightToe
                {
                    OFFSET   0.000000  -6.358960  14.674500
                    CHANNELS 3 Zrotation Xrotation Yrotation
                    End Site
                    {
                        OFFSET   0.000000   0.000000   3.913200
                    }
                }
            }
        }
    }
}
MOTION
Frames: 4
Frame Time:   0.016667
  0.327776  89.413100   0.866515  -1.195550   1.599820   1.361570   0.919531  -0.030878  -1.034460   1.838350  -0.078346  -2.068290  -1.780230   1.284450   0.036359  -2.929240   2.596710   4.910980  -2.690690   2.556840  13.104700 -80.393700   4.829620   3.718460  -0.136600   2.456300 -12.883700  11.219100  -8.770870  -1.348000  38.700100  30.732000 -54.524500 -32.039800   0.008740   0.005518 -11.005600   0.004578  -0.004547 -34.931600   1.919540  -2.745800 -28.618000   0.003615  -0.003592 -20.032600   0.003809  -0.000246 -31.970900  -0.784077   1.255850 -47.969300   0.007985  -0.000340 -31.947500   0.009299   0.001851 -28.477700  -3.989590   7.308850 -39.785200   0.003090  -0.001258 -26.497000   0.002338   0.001065 -35.907700  -4.903100   6.732010 -54.294300  -0.000697  -0.000456 -36.160000  -0.000299  -0.000374   5.070580   6.040150   7.001810  73.876800  -5.519410  -1.565120   3.773690  -6.075660  11.658400 -25.061100   0.461491  -1.976130 -36.488700  32.257000  69.565400  31.941800   0.007224  -0.004400  10.970900   0.011611   0.000678  34.884800   0.766934   1.099670  28.548100   0.000435   0.008555  19.983700   0.009728   0.000323  30.758900  -1.383910  -2.323530  46.180400   0.008233   0.005585  30.756200   0.004574  -0.003980  29.461100  -1.330630  -2.354250  44.232600   0.002926  -0.004590  29.458900   0.001517  -0.003761  39.629400  -1.725370  -2.082400  59.491200   0.001830  -0.004114  39.621100   0.004994  -0.003462   3.362110   0.538215  -0.627245   0.024393   0.128305  11.066700  -3.342150  -2.101420   0.217621   0.000000   0.000000   0.000000  -2.559780   1.793450  -2.611310   1.419780   0.335446 -13.300600   1.067210  -2.762830  -3.127340   0.000000   0.000000   0.000000
  0.312015  89.413200   0.866521  -1.195660   1.595280   1.369200   0.927483  -0.008884  -1.030580   1.854660  -0.034450  -2.060600  -1.797690   1.276420   0.036553  -2.957600   2.580340   4.935380  -2.701760   2.548490  13.111800 -80.378200   4.866820   3.689640  -0.126415   2.455470 -12.908000  11.222500  -8.740960  -1.332280  38.696600  30.708800 -54.497800 -32.025500   0.008745   0.005521 -11.005600   0.004574  -0.004547 -34.909600   1.936450  -2.772260 -28.600600   0.003614  -0.003589 -20.020400   0.003806  -0.000245 -31.966000  -0.751573   1.204140 -47.961000   0.007985  -0.000341 -31.942000   0.009301   0.001848 -28.481300  -3.975260   7.282370 -39.811900   0.003085  -0.001254 -26.514700   0.002335   0.001068 -35.926200  -4.886800   6.706260 -54.319000  -0.000700  -0.000455 -36.176500  -0.000300  -0.000376   5.069880   6.029450   7.020200  73.837200  -5.494530  -1.584550   3.799660  -6.096280  11.637700 -25.145500   0.474566  -1.947550 -36.431200  32.201300  69.503600  31.999900   0.007221  -0.004431  11.000000   0.011613   0.000673  34.902100   0.747744   1.071500  28.562000   0.000434   0.008554  19.993400   0.009724   0.000323  30.695500  -1.387140  -2.334970  46.085500   0.008228   0.005581  30.693000   0.004570  -0.003983  29.433000  -1.335080  -2.364910  44.190600   0.002920  -0.004594  29.431000   0.001514  -0.003762  39.629000  -1.732540  -2.091360  59.491200   0.001827  -0.004113  39.621100   0.004991  -0.003459   3.369840   0.577741  -0.635568   0.026558   0.065116  11.083800  -3.343330  -2.074340   0.207498  -0.000000   0.000000  -0.000000  -2.534210   1.814880  -2.639000   1.407900   0.297108 -13.280600   1.053200  -2.741130  -3.127640   0.000000   0.000000  -0.000000
  0.284863  89.413200   0.866562  -1.195890   1.585630   1.385990   0.940864   0.028615  -1.025440   1.882100   0.040373  -2.051220  -1.824710   1.256450   0.036748  -3.001600   2.539750   4.979590  -2.720230   2.534730  13.125500 -80.351500   4.937450   3.641900  -0.111454   2.451550 -12.943000  11.226900  -8.711070  -1.310060  38.690100  30.674100 -54.452400 -32.011200   0.008751   0.005525 -11.005600   0.004569  -0.004546 -34.886900   1.960240  -2.808480 -28.583100   0.003609  -0.003587 -20.008200   0.003803  -0.000244 -31.961600  -0.704597   1.129110 -47.952800   0.007982  -0.000342 -31.936500   0.009304   0.001846 -28.486100  -3.956270   7.246370 -39.862800   0.003073  -0.001250 -26.548600   0.002326   0.001072 -35.954600  -4.866540   6.671010 -54.357700  -0.000709  -0.000450 -36.202200  -0.000305  -0.000382   5.068900   6.010990   7.047540  73.774300  -5.467830  -1.615030   3.838150  -6.137740  11.597400 -25.273200   0.499552  -1.917740 -36.343200  32.119000  69.414600  32.089700   0.007212  -0.004463  11.044900   0.011615   0.000649  34.933800   0.717437   1.026890  28.587400   0.000431   0.008550  20.011200   0.009715   0.000322  30.577500  -1.394820  -2.359110  45.909300   0.008212   0.005568  30.575600   0.004559  -0.003990  29.404400  -1.346080  -2.387070  44.148600   0.002903  -0.004604  29.403000   0.001505  -0.003767  39.628800  -1.748500  -2.110230  59.491500   0.001818  -0.004109  39.621300   0.004984  -0.003449   3.382840   0.617267  -0.647738   0.028761   0.001934  11.101000  -3.348810  -2.047270   0.189333   0.000000   0.000000  -0.000000  -2.492330   1.836370  -2.677930   1.388850   0.258765 -13.259200   1.032460  -2.719420  -3.130030  -0.000000   0.000000   0.000000
  0.261141  89.413300   0.869494  -1.196400   1.573340   1.408390   0.952554   0.060394  -1.024260   1.906040   0.103738  -2.049660  -1.843890   1.226140   0.036590  -3.032210   2.478240   5.025420  -2.735100   2.525480  13.144800 -80.329500   5.015200   3.602670  -0.112616   2.405020 -12.956900  11.228000  -8.721120  -1.300850  38.681500  30.651500 -54.404200 -32.011500   0.008753   0.005525 -11.008900   0.004574  -0.004542 -34.905700   1.970900  -2.821070 -28.599100   0.003602  -0.003587 -20.019400   0.003802  -0.000242 -31.978700  -0.680207   1.089310 -47.977400   0.007977  -0.000343 -31.952900   0.009307   0.001847 -28.488600  -3.950830   7.234730 -39.923100   0.003055  -0.001249 -26.588800   0.002311   0.001074 -35.976000  -4.861930   6.658700 -54.388700  -0.000726  -0.000444 -36.222800  -0.000313  -0.000389   5.067260   5.996340   7.065010  73.729200  -5.466580  -1.636440   3.861320  -6.187360  11.555200 -25.348600   0.528429  -1.916310 -36.292500  32.077400  69.371900  32.147500   0.007201  -0.004455  11.073800   0.011606   0.000592  34.959900   0.692160   0.989283  28.608400   0.000426   0.008541  20.025900   0.009701   0.000322  30.445500  -1.407470  -2.393000  45.712400   0.008186   0.005550  30.444400   0.004544  -0.004000  29.434900  -1.364940  -2.417420  44.195500   0.002876  -0.004618  29.434300   0.001489  -0.003774  39.663700  -1.772690  -2.136550  59.544700   0.001805  -0.004103  39.656800   0.004975  -0.003432   3.394450   0.616593  -0.654741   0.032587   0.035441  11.100600  -3.362100  -2.065690   0.171880   0.000000   0.000000   0.000000  -2.453750   1.836400  -2.693320   1.368040   0.280964 -13.257600   1.022630  -2.727980  -3.139630  -0.000000   0.000000   0.000000
